<svg id="Layer_1" data-name="Layer 1" xmlns="http://www.w3.org/2000/svg" viewBox="0 0 129.65 20.98"><defs><style>.cls-1{fill:red;}.cls-2{fill:#fff;}</style></defs><path class="cls-1" d="M42.09,41.49A3.59,3.59,0,0,0,39.56,39c-2.22-.6-11.16-.6-11.16-.6s-8.93,0-11.16.6a3.59,3.59,0,0,0-2.53,2.53,40.35,40.35,0,0,0,0,13.75,3.59,3.59,0,0,0,2.53,2.53c2.23.59,11.16.59,11.16.59s8.94,0,11.16-.59a3.59,3.59,0,0,0,2.53-2.53,37,37,0,0,0,.6-6.88A37.82,37.82,0,0,0,42.09,41.49Z" transform="translate(-14.12 -37.88)"/><path class="cls-2" d="M25.54,52.65,33,48.36l-7.42-4.28Z" transform="translate(-14.12 -37.88)"/><path d="M53.62,37.88l-3,9.64v7H48.47v-7l-3-9.64h2.56l1.79,6.31,1.78-6.31Z" transform="translate(-14.12 -37.88)"/><path d="M56.3,42a2.74,2.74,0,0,1,2.48,1.85,10.61,10.61,0,0,1,.89,4.61A10.14,10.14,0,0,1,58.75,53a2.78,2.78,0,0,1-2.46,1.83A2.68,2.68,0,0,1,53.91,53,10.4,10.4,0,0,1,53,48.35a12,12,0,0,1,.4-3.34,6.11,6.11,0,0,1,1.11-2.21A2.17,2.17,0,0,1,56.3,42Zm.06,2.38c-.39,0-.69.27-.88.8a10.87,10.87,0,0,0-.3,3.18,12.18,12.18,0,0,0,.28,3.14c.19.64.48.95.88.95s.63-.27.85-.81a9.9,9.9,0,0,0,.32-3.09,12.41,12.41,0,0,0-.29-3.3C57,44.62,56.74,44.33,56.36,44.33Z" transform="translate(-14.12 -37.88)"/><path d="M66.91,42.21V54.54H65v-2.1C64.65,54,64,54.8,63,54.8a1.48,1.48,0,0,1-1.21-.52,3.26,3.26,0,0,1-.6-1.42A14.07,14.07,0,0,1,61,50.27V42.21h2v8.06c0,1.1.25,1.66.77,1.66a.82.82,0,0,0,.68-.4,2.14,2.14,0,0,0,.37-.85,10.58,10.58,0,0,0,.08-1.55V42.21Z" transform="translate(-14.12 -37.88)"/><path d="M74.66,37.88v3.29H72.33V54.54H70.1V41.17H67.76V37.88Z" transform="translate(-14.12 -37.88)"/><path d="M80.76,42.21V54.54h-1.9v-2.1c-.36,1.57-1,2.36-2,2.36a1.48,1.48,0,0,1-1.21-.52,3.26,3.26,0,0,1-.6-1.42,14.07,14.07,0,0,1-.18-2.59V42.21h2v8.06c0,1.1.25,1.66.77,1.66a.82.82,0,0,0,.68-.4,2,2,0,0,0,.37-.85,10.58,10.58,0,0,0,.08-1.55V42.21Z" transform="translate(-14.12 -37.88)"/><path d="M84.51,37.88v5.88c.36-1.2.94-1.81,1.72-1.81s1.43.58,1.89,1.72a12.7,12.7,0,0,1,.7,4.71A12.54,12.54,0,0,1,88.1,53c-.48,1.18-1.16,1.77-2.06,1.77a1.58,1.58,0,0,1-1.15-.43A4.66,4.66,0,0,1,84,52.65a7.79,7.79,0,0,0-.46,1.89h-1.1V37.88Zm0,11.78a4.91,4.91,0,0,0,.3,2c.21.44.45.66.74.66s.62-.27.84-.8a9.53,9.53,0,0,0,.33-3.11,9.52,9.52,0,0,0-.34-3.29c-.23-.45-.49-.67-.78-.67s-.6.25-.8.75a6.35,6.35,0,0,0-.29,2.15Z" transform="translate(-14.12 -37.88)"/><path d="M96.38,49H91.9v.57a4,4,0,0,0,.39,2,1.13,1.13,0,0,0,.95.67c.68,0,1.09-.65,1.23-1.94l1.86.24q-.78,4.27-3.16,4.28a2.42,2.42,0,0,1-1.77-.74,5.48,5.48,0,0,1-1.19-2.16,10.57,10.57,0,0,1-.48-3.39,10.25,10.25,0,0,1,1-4.75A2.8,2.8,0,0,1,93.12,42a2.74,2.74,0,0,1,2.3,1.68A11.29,11.29,0,0,1,96.38,49ZM91.9,46.87h2.47c-.07-1.69-.46-2.54-1.18-2.54S92,45.18,91.9,46.87Z" transform="translate(-14.12 -37.88)"/><path d="M99.73,37.88v5.88c.36-1.2.94-1.81,1.72-1.81s1.43.58,1.89,1.72a12.7,12.7,0,0,1,.7,4.71,12.54,12.54,0,0,1-.72,4.65c-.48,1.18-1.16,1.77-2.06,1.77a1.58,1.58,0,0,1-1.15-.43,4.66,4.66,0,0,1-.88-1.72,7.79,7.79,0,0,0-.46,1.89h-1.1V37.88Zm0,11.78a4.91,4.91,0,0,0,.3,2c.21.44.45.66.74.66s.62-.27.84-.8a9.53,9.53,0,0,0,.33-3.11,9.52,9.52,0,0,0-.34-3.29c-.23-.45-.49-.67-.78-.67s-.6.25-.8.75a6.11,6.11,0,0,0-.29,2.15Z" transform="translate(-14.12 -37.88)"/><path d="M110.61,42.21,108.43,54c-.25,1.32-.46,2.27-.63,2.86a3.53,3.53,0,0,1-.74,1.42,1.77,1.77,0,0,1-1.35.53,3.84,3.84,0,0,1-1-.15V55.91a3.5,3.5,0,0,0,1,.17.81.81,0,0,0,.81-.4,3.68,3.68,0,0,0,.31-1.14l-2.53-12.33h2.17l1.34,7.34,1.29-7.34Z" transform="translate(-14.12 -37.88)"/><path d="M118.85,37.88V54.54h-2.16V47.67h-2.93v6.87h-2.17V37.88h2.17v6.49h2.93V37.88Z" transform="translate(-14.12 -37.88)"/><path d="M126.71,54.54h-2a16.17,16.17,0,0,1-.1-1.93,4.41,4.41,0,0,1-1,1.75,1.78,1.78,0,0,1-1.18.44,1.83,1.83,0,0,1-1.58-.94,4.67,4.67,0,0,1-.6-2.53,6.4,6.4,0,0,1,.35-2.14,3.15,3.15,0,0,1,1.13-1.53,6.73,6.73,0,0,1,2.83-.82v-.71c0-1.2-.33-1.8-1-1.8s-1.12.6-1.2,1.8l-1.89-.32a4.55,4.55,0,0,1,1.12-3,3,3,0,0,1,3.46-.58,2.14,2.14,0,0,1,1,.88,3.77,3.77,0,0,1,.47,1.23,14.32,14.32,0,0,1,.13,2.28v5.59A15.31,15.31,0,0,0,126.71,54.54Zm-2.18-5.91a2.22,2.22,0,0,0-2.15,2.31,2.6,2.6,0,0,0,.23,1.12.71.71,0,0,0,.65.47c.36,0,.66-.27.91-.8a4.83,4.83,0,0,0,.36-2Z" transform="translate(-14.12 -37.88)"/><path d="M130.27,54.54h-2V42.21h1.88v2.3c.29-1.71.79-2.57,1.5-2.57a1.8,1.8,0,0,1,.37,0v3.59a1.32,1.32,0,0,0-1,.34,2.71,2.71,0,0,0-.57,1.23,10.06,10.06,0,0,0-.22,2.38Z" transform="translate(-14.12 -37.88)"/><path d="M135.17,54.54h-2V42.21h1.88v2.3c.29-1.71.79-2.57,1.5-2.57a1.87,1.87,0,0,1,.37,0v3.59a1.3,1.3,0,0,0-1,.34,2.61,2.61,0,0,0-.57,1.23,10.06,10.06,0,0,0-.22,2.38Z" transform="translate(-14.12 -37.88)"/><path d="M143.76,42.21,141.58,54c-.24,1.32-.45,2.27-.62,2.86a3.54,3.54,0,0,1-.75,1.42,1.74,1.74,0,0,1-1.35.53,3.84,3.84,0,0,1-1-.15V55.91a3.56,3.56,0,0,0,1,.17.83.83,0,0,0,.82-.4,3.68,3.68,0,0,0,.31-1.14l-2.54-12.33h2.17L141,49.55l1.29-7.34Z" transform="translate(-14.12 -37.88)"/></svg>